<svg width="59" height="58" viewBox="0 0 59 58" xmlns="http://www.w3.org/2000/svg"><g transform="translate(-1)" stroke="#139FF0" stroke-width="1.5" fill="none" fill-rule="evenodd"><path d="M12.75 4.007v20.492c0 9.799 7.95 17.751 17.75 17.751 9.805 0 17.75-7.947 17.75-17.751V4.007A3.25 3.25 0 0 0 45.005.75h-29.01a3.248 3.248 0 0 0-3.245 3.257z"/><path d="M34.955 26.596l-.756-4.638 3.245-3.326-4.48-.684L31 13.765l-1.963 4.183-4.48.684 3.244 3.326-.756 4.638L31 24.41l3.955 2.186z" fill-opacity=".2" fill="#139FF0"/><rect x="15.75" y="52.75" width="29.5" height="4.5" rx="2.25"/><path d="M27 43v9M34 43v9" stroke-linecap="square"/><path d="M12.25 5.75H2.854c-.681 0-1.17.523-1.105 1.175l.003.104v.004c-.011.551.091 1.557.418 3.01.532 2.368 1.512 5.168 3.053 8.396.286.599.578 1.157.875 1.675 1.397 2.432 2.86 3.91 4.31 4.637.706.354 1.328.496 1.842.503V5.75zM48.75 5.75h9.396c.681 0 1.17.523 1.105 1.175l-.003.104v.004c.011.551-.091 1.557-.418 3.01-.532 2.368-1.512 5.168-3.053 8.396a24.888 24.888 0 0 1-.875 1.675c-1.397 2.432-2.86 3.91-4.31 4.637-.706.354-1.328.496-1.842.503V5.75z"/></g></svg>