<svg width="70" height="94" viewBox="16 0 60 94" xmlns="http://www.w3.org/2000/svg" xmlns:xlink="http://www.w3.org/1999/xlink"><defs><rect id="a" y="23" width="48" height="38.769" rx="8"/></defs><g fill="none" fill-rule="evenodd"><g stroke="#139FF0" stroke-width="1.5"><path d="M47 16.75c-6.765 0-12.25 5.485-12.25 12.25v25.765c0 6.765 5.485 12.25 12.25 12.25s12.25-5.485 12.25-12.25V29c0-6.765-5.485-12.25-12.25-12.25z"/><path d="M47 20.75A8.25 8.25 0 0 0 38.75 29v21.195a8.25 8.25 0 1 0 16.5 0V29A8.25 8.25 0 0 0 47 20.75z"/></g><g transform="translate(23 16)"><use fill="#FFF" xlink:href="#a"/><rect stroke="#139FF0" stroke-width="1.5" x=".75" y="23.75" width="46.5" height="37.269" rx="8"/></g><g transform="translate(35 46)" fill="#139FF0"><ellipse fill-opacity=".2" cx="12.5" cy="12" rx="12.5" ry="12"/><path d="M14.232 14.65c0-.417-.131-.762-.393-1.034-.262-.273-.699-.518-1.31-.736-.611-.219-1.087-.421-1.426-.608-1.13-.613-1.696-1.52-1.696-2.723 0-.815.245-1.485.735-2.01.49-.525 1.155-.836 1.994-.934V5H13.3v1.62c.844.122 1.497.484 1.958 1.085.46.601.691 1.383.691 2.344h-1.76c0-.618-.138-1.105-.412-1.46-.274-.356-.646-.534-1.117-.534-.466 0-.83.127-1.091.382-.262.256-.393.621-.393 1.097 0 .427.13.77.389 1.027.26.258.7.502 1.32.732.622.231 1.11.444 1.463.64.354.197.653.422.895.674.243.253.43.544.56.872.132.33.197.714.197 1.156 0 .83-.251 1.502-.753 2.017-.502.515-1.202.82-2.1.913V19h-1.156v-1.428c-.96-.108-1.7-.456-2.216-1.045-.517-.589-.775-1.37-.775-2.34h1.768c0 .617.154 1.096.462 1.434.308.339.744.508 1.306.508.553 0 .974-.135 1.263-.404.288-.27.433-.629.433-1.075z"/></g></g></svg>
