<svg xmlns="http://www.w3.org/2000/svg" xmlns:xlink="http://www.w3.org/1999/xlink" width="74" height="66" viewBox="0 0 74 66"><title>online</title><defs><rect id="b" x="4" y="5" width="64" height="35" rx="4"/><clipPath id="a"><path d="M10.93 12.442h73.635v68.17H10.93z"/></clipPath></defs><g clip-path="url(#a)" transform="translate(-10.643 -14.755)" fill="none" fill-rule="evenodd"><path fill="#fff" fill-opacity="0" d="M0 0h96v96H0z"/><g transform="translate(12 16)"><rect x=".75" y=".75" width="70.5" height="45.5" rx="4" stroke="#139ff0" stroke-width="1.5"/><rect x=".75" y=".75" width="70.5" height="45.5" rx="4" stroke="#139ff0" stroke-width="1.5"/><use xlink:href="#b" width="100%" height="100%" fill="#d0ecfc"/><rect x="4.75" y="5.75" width="62.5" height="33.5" rx="4" stroke="#139ff0" stroke-width="1.5"/><rect x="1.75" y="51.75" width="67.5" height="11.5" rx="4" stroke="#139ff0" stroke-width="1.5"/><path d="M16.36 21.03h39.215m-39.449-4.67H29.85m-13.536 8.542h34.314M16.36 29.03h39.215M22.5 46.5v5m27-5v5M8.567 57.865h27.239m16.672 0h9.328" stroke="#139ff0" stroke-width="1.5" stroke-linecap="square"/></g></g></svg>