<svg width="64" height="64" viewBox="0 0 64 64" xmlns="http://www.w3.org/2000/svg"><title>Icon - Recruiter</title><g fill="none" fill-rule="evenodd"><g stroke="#139FF0" stroke-width="1.297" transform="translate(8)"><path d="M.649 52.835v9.751h46.687V52.43c-.75-1.803-2.297-3.099-4.69-3.898-.974-.325-2.137-.467-3.593-.477-.689-.005-1.298.015-2.438.068-3.48.162-4.49.09-5.308-.786-1.005-1.078-1.488-3.866-1.578-8.526l-.007-.364.307-.195c4.468-2.852 7.376-8.748 7.376-15.333 0-11.264-3.779-17.081-13.189-17.081s-13.189 5.817-13.189 17.08c0 6.674 2.987 12.635 7.547 15.44l.312.192-.004.367c-.043 4.368-.258 7.064-.676 8.2-.45 1.227-1.561 1.334-6.14 1.247-.862-.017-1.3-.023-1.809-.024-2.322-.007-3.906.14-5.047.541-2.391.84-3.893 2.155-4.561 3.954z"/><ellipse fill-opacity=".2" fill="#139FF0" cx="26.811" cy="32.432" rx="2.811" ry="1.514"/><path d="M7.568 28.266l22.323 4.077c6.901.355 10.487-.174 10.487-.997V13.617C37.823 5.47 32.523 1.451 24.356 1.451c-8.173 0-13.734 4.03-16.788 12.184v14.63zm-.128-.108l-.706-10.141c-2.357.388-3.49 2.06-3.49 5.217 0 3.151 1.34 4.73 4.197 4.924zm33.04 0l.707-10.141c2.358.388 3.491 2.06 3.491 5.217 0 3.151-1.34 4.73-4.197 4.924z"/></g><path d="M16.138 28.827c-3.696.025-5.543-1.84-5.543-5.593s1.58-5.732 4.739-5.937m32.45 11.53c3.695.025 5.543-1.84 5.543-5.593s-1.58-5.732-4.74-5.937" fill-opacity=".2" fill="#139FF0"/></g></svg>