<svg width="24" height="24" viewBox="0 0 24 24" version="1.1" xmlns="http://www.w3.org/2000/svg" xmlns:xlink="http://www.w3.org/1999/xlink" fit="" preserveAspectRatio="xMidYMid meet" focusable="false">
    <g stroke="none" stroke-width="1" fill-rule="evenodd" fill="#F7F7F7">
        <polygon opacity="0" fill="none" points="2 2 22 2 22 22 2 22"></polygon>
        <path d="M22,12 C22,6.47714844 17.5228516,2 12,2 C6.47714844,2 2,6.47714844 2,12 C2,16.9912891 5.65685547,21.1283203 10.4375,21.8785156 L10.4375,14.890625 L7.8984375,14.890625 L7.8984375,12 L10.4375,12 L10.4375,9.796875 C10.4375,7.290625 11.9304297,5.90625 14.2146484,5.90625 C15.3087305,5.90625 16.453125,6.1015625 16.453125,6.1015625 L16.453125,8.5625 L15.1921484,8.5625 C13.9499023,8.5625 13.5625,9.33333984 13.5625,10.1241602 L13.5625,12 L16.3359375,12 L15.8925781,14.890625 L13.5625,14.890625 L13.5625,21.8785156 C18.3431445,21.1283203 22,16.9912891 22,12" fill="#F7F7F7"></path>
    </g>
</svg>