<svg width="24" height="24" viewBox="0 0 24 24" version="1.1" xmlns="http://www.w3.org/2000/svg" xmlns:xlink="http://www.w3.org/1999/xlink" fit="" preserveAspectRatio="xMidYMid meet" focusable="false">
    <g stroke="none" stroke-width="1" fill-rule="evenodd" fill="#F7F7F7">
        <polygon fill="none" opacity="0" points="2 2 22 2 22 22 2 22"></polygon>
        <path d="M15.3333333,12 C15.3333333,13.8411111 13.8411111,15.3333333 12,15.3333333 C10.1588889,15.3333333 8.66666667,13.8422222 8.66666667,12 C8.66666667,10.1588889 10.1588889,8.66666667 12,8.66666667 C13.8411111,8.66666667 15.3333333,10.1588889 15.3333333,12 Z M20.1411111,7.96 C20.1888889,9.01333333 20.1988889,9.33 20.1988889,12 C20.1988889,14.67 20.1877778,14.9866667 20.14,16.0411111 C20.0155556,18.73 18.7533333,20.0188889 16.04,20.1411111 C14.9866667,20.1877778 14.67,20.1988889 11.9988889,20.1988889 C9.32888889,20.1988889 9.01,20.1877778 7.95888889,20.14 C5.24111111,20.0177778 3.98111111,18.7255556 3.85888889,16.04 C3.81111111,14.9844444 3.8,14.6688889 3.8,11.9988889 C3.8,9.32888889 3.81111111,9.01222222 3.86,7.95888889 C3.98222222,5.27 5.24666667,3.98111111 7.96,3.85888889 C9.01333333,3.81111111 9.33,3.80111111 12,3.80111111 C14.67,3.80111111 14.9888889,3.81222222 16.0411111,3.85888889 C18.7522222,3.98111111 20.0166667,5.27 20.1411111,7.95888889 L20.1411111,7.96 Z M17.1333333,12 C17.1355556,9.16333333 14.8333333,6.86444444 12,6.86444444 C9.16333333,6.86444444 6.86444444,9.16444444 6.86444444,12 C6.86444444,14.8366667 9.16444444,17.1355556 12,17.1355556 C14.8366667,17.1355556 17.1355556,14.8355556 17.1355556,12 L17.1333333,12 Z M18.5377778,6.66222222 C18.5377778,6 18,5.46222222 17.3377778,5.46222222 C16.6755556,5.46222222 16.1377778,6 16.1377778,6.66222222 C16.1377778,7.32555556 16.6744444,7.86222222 17.3377778,7.86222222 C18.0011111,7.86222222 18.5377778,7.32555556 18.5377778,6.66222222 Z M22,12 C22,9.28444444 21.9888889,8.94444444 21.94,7.87777778 C21.7766667,4.25 19.7588889,2.22777778 16.1233333,2.06111111 C15.0555556,2.01111111 14.7177778,2 12,2 C9.28333333,2 8.94444444,2.01111111 7.87777778,2.06 C4.24444444,2.22666667 2.22777778,4.24111111 2.06,7.87666667 C2.01111111,8.94444444 2,9.28444444 2,12 C2,14.7166667 2.01111111,15.0555556 2.06,16.1222222 C2.22666667,19.7555556 4.24222222,21.7733333 7.87777778,21.94 C8.94444444,21.9888889 9.28333333,22 12,22 C14.7166667,22 15.0555556,21.9888889 16.1222222,21.94 C19.7511111,21.7733333 21.7777778,19.7588889 21.94,16.1222222 C21.9888889,15.0555556 22,14.7166667 22,12 Z" fill="#F7F7F7"></path>
    </g>
</svg>