<svg width="24" height="24" viewBox="0 0 24 24" version="1.1" xmlns="http://www.w3.org/2000/svg" xmlns:xlink="http://www.w3.org/1999/xlink" fit="" preserveAspectRatio="xMidYMid meet" focusable="false">
    <g stroke="none" stroke-width="1" fill-rule="evenodd" fill="#F7F7F7">
        <polygon fill="none" opacity="0" points="2 2 22 2 22 22 2 22"></polygon>
        <path d="M12,2 C6.486,2 2,6.487 2,12 C2,17.515 6.486,22 12,22 C17.514,22 22,17.515 22,12 C22,6.487 17.514,2 12,2 Z M12,18.25 C11.31,18.25 10.75,17.69 10.75,17 C10.75,16.31 11.31,15.75 12,15.75 C12.69,15.75 13.25,16.31 13.25,17 C13.25,17.69 12.69,18.25 12,18.25 Z M13,13.875 L13,15 L11,15 L11,12 L12,12 C13.104,12 14,11.103 14,10 C14,8.896 13.104,8 12,8 C10.896,8 10,8.896 10,10 L8,10 C8,7.795 9.795,6 12,6 C14.205,6 16,7.795 16,10 C16,11.86 14.723,13.43 13,13.875 Z" fill="#F7F7F7"></path>
    </g>
</svg>