<svg width="24" height="24" viewBox="0 0 24 24" version="1.1" xmlns="http://www.w3.org/2000/svg" xmlns:xlink="http://www.w3.org/1999/xlink" fit="" preserveAspectRatio="xMidYMid meet" focusable="false">
    <g stroke="none" stroke-width="1" fill-rule="evenodd" fill="#F7F7F7">
        <polygon fill="none" opacity="0" points="2 2 22 2 22 22 2 22"></polygon>
        <path d="M8.28948705,20.2519045 C5.97359066,20.2519045 3.81615033,19.5733875 2,18.4083291 C4.17775521,18.6642966 6.34941595,18.0609446 8.07414931,16.7100051 C6.27831386,16.6754698 4.76282377,15.4890808 4.24276282,13.8598273 C4.8857288,13.9817166 5.51853733,13.9461656 6.0944642,13.7887252 C4.12188928,13.3925851 2.76079228,11.615033 2.80345353,9.71559167 C3.35703403,10.0223464 3.99187405,10.2072118 4.66226511,10.2285424 C2.83494159,9.00761808 2.31792788,6.595226 3.39156932,4.7496191 C5.41493144,7.23209751 8.43981717,8.86642966 11.8486541,9.03605891 C11.2493652,6.47232098 13.1975622,4 15.8445912,4 C17.0259015,4 18.091417,4.49771458 18.8410361,5.29608939 C19.7755206,5.11325546 20.6541392,4.77094972 21.4464195,4.30066023 C21.1416963,5.2595226 20.4895886,6.06399187 19.6434738,6.57084815 C20.4733367,6.47232098 21.2646013,6.25190452 22,5.92585069 C21.4494667,6.74555612 20.7526663,7.46978162 19.95226,8.04672423 C20.2122905,13.8171661 15.9095988,20.2519045 8.28948705,20.2519045 Z" fill="#F7F7F7"></path>
    </g>
</svg>