<svg width="96" height="96" xmlns="http://www.w3.org/2000/svg" xmlns:xlink="http://www.w3.org/1999/xlink"><defs><rect id="a" width="33.429" height="45.584" rx="2"/><rect id="b" width="33.429" height="45.584" rx="2"/><rect id="c" width="45.584" height="62.805" rx="2"/><path d="M19.237 27.136c-3.14-1.623-5.334-5.33-5.334-9.642 0-5.807 1.822-10.516 8.89-10.516 7.067 0 8.888 4.709 8.888 10.516 0 4.135-2.017 7.713-4.95 9.43.035 1.902.326 3.125.87 3.671.876.878 4.415 1.338 6.836 2.093 1.614.504 2.67 1.849 3.17 4.035v6.31H7.977v-6.069c.445-2.185 1.473-3.543 3.085-4.072 2.418-.794 7.383-1.284 7.781-2.297.238-.603.369-1.757.394-3.46z" id="d"/></defs><g fill="none" fill-rule="evenodd"><path d="M0 0h96v96H0z"/><g transform="translate(56.571 26.117)"><use fill="#FFF" xlink:href="#a"/><rect stroke="#139FF0" stroke-width="1.5" x=".75" y=".75" width="31.929" height="44.084" rx="2"/></g><path d="M70.679 45.812c-2.303-1.178-3.912-3.868-3.912-6.998 0-4.215 1.336-7.632 6.519-7.632s6.518 3.417 6.518 7.632c0 3.002-1.48 5.598-3.63 6.845.026 1.38.24 2.268.639 2.664.642.637 3.237.97 5.012 1.52 1.184.365 1.959 1.341 2.325 2.928v4.58H62.421v-4.405c.326-1.587 1.08-2.572 2.262-2.956 1.774-.576 5.415-.932 5.707-1.667.174-.438.27-1.275.289-2.511z" fill-opacity=".2" fill="#139FF0"/><path d="M57.825 56.929h30.921" stroke="#139FF0" stroke-width="1.5" stroke-linecap="square"/><path d="M65.204 68.024l-1.009.6.193-1.27-.817-.898 1.129-.185.504-1.154.505 1.154 1.128.185-.816.899.193 1.268zm4.083 0l-1.01.6.193-1.27-.816-.898 1.128-.185.505-1.154.505 1.154 1.128.185-.817.899.193 1.268zm4.083 0l-1.01.6.193-1.27-.817-.898 1.129-.185.504-1.154.505 1.154 1.128.185-.816.899.193 1.268zm4.082 0l-1.01.6.193-1.27-.816-.898 1.128-.185.505-1.154.505 1.154 1.128.185-.817.899.193 1.268zm4.082 0l-1.009.6.193-1.27-.817-.898 1.129-.185.504-1.154.505 1.154 1.128.185-.816.899.193 1.268z" fill="#139FF0"/><path fill-opacity=".2" fill="#139FF0" d="M66.571 60.117h13.833v3.506H66.571z"/><g transform="translate(6 26.117)"><use fill="#FFF" xlink:href="#b"/><rect stroke="#139FF0" stroke-width="1.5" x=".75" y=".75" width="31.929" height="44.084" rx="2"/></g><path d="M20.107 45.812c-2.302-1.178-3.911-3.868-3.911-6.998 0-4.215 1.335-7.632 6.518-7.632s6.519 3.417 6.519 7.632c0 3.002-1.48 5.598-3.631 6.845.027 1.38.24 2.268.64 2.664.641.637 3.236.97 5.012 1.52 1.184.365 1.958 1.341 2.325 2.928v4.58H11.85v-4.405c.326-1.587 1.08-2.572 2.262-2.956 1.773-.576 5.415-.932 5.706-1.667.174-.438.27-1.275.29-2.511z" fill-opacity=".2" fill="#139FF0"/><path d="M7.254 56.929h30.921" stroke="#139FF0" stroke-width="1.5" stroke-linecap="square"/><path d="M14.633 68.024l-1.01.6.194-1.27-.817-.898 1.128-.185.505-1.154.505 1.154 1.128.185-.816.899.192 1.268zm4.083 0l-1.01.6.193-1.27-.816-.898 1.128-.185.505-1.154.504 1.154 1.129.185-.817.899.193 1.268zm4.082 0l-1.01.6.194-1.27-.817-.898 1.128-.185.505-1.154.505 1.154 1.128.185-.816.899.192 1.268zm4.082 0l-1.009.6.193-1.27-.816-.898 1.128-.185.505-1.154.504 1.154 1.129.185-.817.899.193 1.268zm4.083 0l-1.01.6.194-1.27-.817-.898 1.128-.185.505-1.154.505 1.154 1.128.185-.816.899.192 1.268z" fill="#139FF0"/><path fill-opacity=".2" fill="#139FF0" d="M16 60.117h13.833v3.506H16z"/><g transform="translate(25.208 17)"><use fill="#FFF" xlink:href="#c"/><rect stroke="#139FF0" stroke-width="1.5" x=".75" y=".75" width="44.084" height="61.305" rx="2"/></g><g transform="translate(25.208 17)"><use fill="#139FF0" xlink:href="#d"/><path stroke="#139FF0" stroke-width="1.5" d="M8.727 37.041v5.242h28.13V36.81c-.45-1.895-1.327-2.994-2.643-3.405-.597-.186-1.252-.354-2.29-.596l-.976-.228c-2.288-.537-3.29-.866-3.877-1.455-.724-.725-1.051-2.104-1.09-4.186l-.01-.44.38-.221c2.77-1.622 4.58-5.001 4.58-8.784 0-6.498-2.299-9.766-8.139-9.766s-8.139 3.268-8.139 9.766c0 3.95 1.974 7.448 4.928 8.975l.413.213-.007.465c-.027 1.789-.165 3.01-.446 3.723-.366.932-1.287 1.206-4.982 1.963l-.096.02c-1.736.355-2.483.527-3.167.751-1.315.432-2.168 1.541-2.569 3.437z"/></g><path d="M26.917 59.452h42.166" stroke="#139FF0" stroke-width="1.5" stroke-linecap="square"/><path d="M36.487 72.858l-1.409.794.27-1.683-1.14-1.192 1.575-.246.704-1.531.704 1.531 1.575.246-1.14 1.192.27 1.683zm5.698 0l-1.409.794.27-1.683-1.14-1.192 1.575-.246.704-1.531.704 1.531 1.575.246-1.14 1.192.27 1.683zm5.698 0l-1.409.794.27-1.683-1.14-1.192 1.575-.246.704-1.531.704 1.531 1.575.246-1.14 1.192.27 1.683zm5.698 0l-1.408.794.269-1.683-1.14-1.192 1.575-.246L53.58 69l.704 1.531 1.575.246-1.14 1.192.27 1.683zm5.699 0l-1.41.794.27-1.683L57 70.777l1.575-.246.704-1.531.705 1.531 1.574.246-1.14 1.192.27 1.683z" fill="#139FF0"/><path fill-opacity=".2" fill="#139FF0" d="M39.208 64h18.234v3.489H39.208z"/></g></svg>