<svg width="128" height="128" viewBox="0 0 128 128" fill="none" xmlns="http://www.w3.org/2000/svg"><path fill-rule="evenodd" clip-rule="evenodd" d="M102.895 62.57a38.742 38.742 0 01-9.604 26.981l-.945 1.076-1.323-.548C84.582 87.41 74.918 85.675 64 85.675s-20.582 1.736-27.023 4.404l-1.328.55-.945-1.084a38.851 38.851 0 01-.253-50.765l.95-1.112 1.348.568c6.436 2.713 16.214 4.5 27.271 4.5 11.064 0 20.815-1.749 27.242-4.496l1.347-.576.129.15a13.557 13.557 0 00-5.511 6.056c-6.477 1.83-14.534 2.865-23.207 2.865-9.428 0-18.131-1.251-24.861-3.37l-2.569-.886a34.852 34.852 0 00.23 43.364c6.988-2.605 16.626-4.168 27.18-4.168 10.557 0 20.197 1.564 27.184 4.17A34.742 34.742 0 0098.921 64L39.158 43.365 98.922 64c0-.338-.005-.675-.015-1.012a13.526 13.526 0 003.989-.418zM36.59 42.479c.82.31 1.676.606 2.568.886l-2.568-.886z" fill="#007FED"/><path d="M64 100.871c7.329 0 13.27-16.507 13.27-36.87 0-20.364-5.941-36.872-13.27-36.872S50.73 43.637 50.73 64c0 20.364 5.941 36.871 13.27 36.871z" stroke="#007FED" stroke-width="4" stroke-miterlimit="10"/><path d="M92.048 40.079C85.293 42.966 75.231 44.735 64 44.735c-11.231 0-21.293-1.769-28.028-4.656M36.212 88.231c6.754-2.798 16.747-4.556 27.788-4.556s20.984 1.758 27.788 4.556M28.548 64h72.323" stroke="#007FED" stroke-width="4" stroke-miterlimit="10"/><path fill-rule="evenodd" clip-rule="evenodd" d="M39.69 39c6.28-6.109 14.856-9.871 24.31-9.871 9.454 0 18.03 3.762 24.31 9.871h5.456C86.636 30.519 75.947 25.129 64 25.129S41.364 30.519 34.234 39h5.456zM29.256 67h-4.013C26.774 87.066 43.54 102.871 64 102.871S101.226 87.066 102.757 67h-4.013C97.223 84.854 82.248 98.871 64 98.871S30.777 84.854 29.256 67z" fill="#007FED"/><path d="M109.404 54.707a11.347 11.347 0 001.807-12.17 11.354 11.354 0 00-20.68 0 11.352 11.352 0 001.807 12.17L100.87 64l8.533-9.293z" stroke="#007FED" stroke-width="4" stroke-miterlimit="10"/><path d="M100.881 49.511a2.288 2.288 0 100-4.575 2.288 2.288 0 000 4.575z" fill="#007FED"/></svg>
