<svg width="128" height="128" viewBox="0 0 128 128" fill="none" xmlns="http://www.w3.org/2000/svg"><path d="M64 79.7c10.687 0 19.35-8.663 19.35-19.35C83.35 49.663 74.687 41 64 41c-10.687 0-19.35 8.663-19.35 19.35 0 10.687 8.663 19.35 19.35 19.35z" stroke="#007FED" stroke-width="4" stroke-miterlimit="10"/><path d="M64 79.7c3.844 0 6.96-8.663 6.96-19.35C70.96 49.663 67.844 41 64 41s-6.96 8.663-6.96 19.35c0 10.687 3.116 19.35 6.96 19.35zM45.56 61.12h37.79" stroke="#007FED" stroke-width="4" stroke-miterlimit="10"/><path d="M37.949 105.422v-15.52H22.023l-.012-59.87h83.921l.012 59.87H64.489l-26.54 15.52z" stroke="#007FED" stroke-width="4" stroke-miterlimit="10"/></svg>
